<?xml version="1.0" encoding="UTF-8"?>
<svg xmlns="http://www.w3.org/2000/svg" xmlns:xlink="http://www.w3.org/1999/xlink" viewBox="18.20 15.39 137.75 128.12">
<path fill-rule="nonzero" fill="rgb(13.729858%, 12.159729%, 12.548828%)" fill-opacity="1" d="M 29.695312 142.703125 L 19.800781 142.703125 L 19.800781 114.039062 L 29.695312 114.039062 Z M 19.398438 21.335938 C 19.398438 18.105469 21.214844 16.492188 24.648438 16.492188 C 28.078125 16.492188 29.894531 18.308594 29.894531 21.738281 C 29.894531 25.171875 28.078125 26.785156 24.648438 26.785156 C 21.214844 26.785156 19.398438 24.96875 19.398438 21.335938 "/>
<path fill-rule="nonzero" fill="rgb(13.729858%, 12.159729%, 12.548828%)" fill-opacity="1" d="M 51.292969 142.703125 L 46.648438 142.703125 C 40.996094 142.703125 38.167969 140.683594 38.167969 136.445312 L 38.167969 36.476562 L 34.941406 36.476562 L 34.941406 28.601562 L 38.167969 28.601562 L 38.167969 16.691406 L 47.859375 16.691406 L 47.859375 28.601562 L 51.292969 28.601562 L 51.292969 36.476562 L 47.859375 36.476562 L 47.859375 132.8125 C 47.859375 133.820312 48.464844 134.425781 49.675781 134.425781 L 51.292969 134.425781 Z M 51.292969 142.703125 "/>
<path fill-rule="nonzero" fill="rgb(13.729858%, 12.159729%, 12.548828%)" fill-opacity="1" d="M 84.390625 142.703125 L 74.703125 142.703125 L 74.703125 125.949219 C 74.703125 123.121094 73.492188 121.710938 71.269531 121.710938 C 69.050781 121.710938 67.839844 123.324219 67.839844 126.753906 L 67.839844 142.703125 L 57.949219 142.703125 L 57.949219 16.691406 L 67.839844 16.691406 L 67.839844 117.875 C 69.65625 115.050781 72.28125 113.636719 75.710938 113.636719 C 81.566406 113.636719 84.390625 116.863281 84.390625 123.324219 Z M 84.390625 142.703125 "/>
<path fill-rule="nonzero" fill="rgb(13.729858%, 12.159729%, 12.548828%)" fill-opacity="1" d="M 109.824219 128.371094 C 109.824219 123.929688 108.007812 121.710938 104.574219 121.710938 C 101.144531 121.710938 99.328125 123.929688 99.328125 128.371094 C 99.328125 133.011719 101.144531 135.230469 104.574219 135.230469 C 108.007812 135.230469 109.824219 133.011719 109.824219 128.371094 M 89.234375 128.371094 C 89.234375 120.296875 94.683594 113.636719 104.574219 113.636719 C 114.0625 113.636719 119.714844 120.296875 119.714844 128.371094 C 119.714844 136.445312 114.0625 143.511719 104.574219 143.511719 C 94.683594 143.511719 89.234375 136.445312 89.234375 128.371094 "/>
<path fill-rule="nonzero" fill="rgb(13.729858%, 12.159729%, 12.548828%)" fill-opacity="1" d="M 134.648438 143.511719 C 127.582031 143.511719 123.75 140.28125 123.546875 133.617188 L 132.023438 133.617188 L 132.023438 134.023438 C 132.023438 135.839844 132.832031 136.847656 134.445312 136.847656 C 136.261719 136.847656 137.070312 136.242188 137.070312 135.03125 C 137.070312 133.011719 123.949219 130.390625 123.949219 122.917969 C 123.949219 116.664062 127.582031 113.636719 134.648438 113.636719 C 141.511719 113.636719 144.941406 116.664062 145.144531 122.515625 L 137.273438 122.515625 C 137.070312 120.699219 136.261719 119.894531 134.648438 119.894531 C 133.035156 119.894531 132.222656 120.496094 132.222656 121.710938 C 132.222656 123.523438 145.75 126.351562 145.75 134.023438 C 145.75 140.28125 142.113281 143.511719 134.648438 143.511719 "/>
<path fill-rule="nonzero" fill="rgb(31.053162%, 35.05249%, 19.322205%)" fill-opacity="1" d="M 90.390625 107.492188 L 90.046875 107.492188 L 89.945312 107.480469 L 89.84375 107.433594 L 89.753906 107.375 L 89.6875 107.289062 L 89.652344 107.183594 L 89.636719 107.085938 L 89.625 103.089844 L 88.796875 103.085938 L 88.28125 103.035156 L 87.464844 102.976562 L 86.632812 102.894531 L 85.8125 102.78125 L 84.992188 102.640625 L 84.175781 102.484375 L 83.363281 102.296875 L 82.5625 102.089844 L 81.765625 101.855469 L 80.972656 101.59375 L 80.554688 101.4375 L 79.785156 101.128906 L 78.058594 104.347656 L 77.996094 104.433594 L 77.910156 104.5 L 77.816406 104.546875 L 77.707031 104.5625 L 77.601562 104.558594 L 77.5 104.511719 L 76.910156 104.28125 L 76.828125 104.214844 L 76.761719 104.125 L 76.71875 104.03125 L 76.703125 103.925781 L 76.707031 103.816406 L 76.75 103.71875 L 76.742188 103.714844 L 78.421875 100.570312 L 77.523438 100.136719 L 76.652344 99.679688 L 76.5625 99.609375 L 76.496094 99.523438 L 76.449219 99.429688 L 76.4375 99.320312 L 76.441406 99.214844 L 76.484375 99.109375 L 76.542969 99.023438 L 77.558594 97.601562 L 77.65625 97.527344 L 77.75 97.480469 L 77.867188 97.457031 L 77.972656 97.472656 L 78.082031 97.515625 L 78.582031 97.804688 L 79.273438 98.167969 L 79.976562 98.503906 L 80.695312 98.816406 L 81.414062 99.109375 L 82.148438 99.371094 L 82.886719 99.621094 L 83.636719 99.847656 L 84.398438 100.039062 L 85.15625 100.207031 L 85.925781 100.359375 L 86.699219 100.484375 L 87.464844 100.578125 L 88.246094 100.652344 L 89.027344 100.699219 L 89.804688 100.722656 L 90.984375 100.722656 L 91.757812 100.699219 L 92.542969 100.652344 L 93.320312 100.578125 L 94.085938 100.484375 L 94.859375 100.359375 L 95.628906 100.207031 L 96.386719 100.039062 L 97.148438 99.847656 L 97.898438 99.621094 L 98.636719 99.371094 L 99.367188 99.109375 L 100.089844 98.816406 L 100.808594 98.503906 L 101.511719 98.167969 L 102.207031 97.804688 L 102.699219 97.515625 L 102.8125 97.472656 L 102.917969 97.457031 L 103.039062 97.480469 L 103.128906 97.527344 L 103.230469 97.601562 L 104.242188 99.023438 L 104.300781 99.109375 L 104.34375 99.214844 L 104.351562 99.320312 L 104.335938 99.429688 L 104.289062 99.523438 L 104.222656 99.609375 L 104.136719 99.679688 L 103.261719 100.136719 L 102.363281 100.570312 L 104.042969 103.714844 L 104.035156 103.71875 L 104.078125 103.816406 L 104.082031 103.925781 L 104.070312 104.03125 L 104.023438 104.125 L 103.957031 104.214844 L 103.875 104.28125 L 103.285156 104.511719 L 103.183594 104.558594 L 103.078125 104.5625 L 102.96875 104.546875 L 102.875 104.5 L 102.789062 104.433594 L 102.726562 104.347656 L 101 101.128906 L 100.230469 101.4375 L 99.8125 101.59375 L 99.019531 101.855469 L 98.222656 102.089844 L 97.421875 102.296875 L 96.609375 102.484375 L 95.792969 102.640625 L 94.972656 102.78125 L 94.152344 102.894531 L 93.324219 102.976562 L 92.503906 103.035156 L 91.988281 103.085938 L 91.160156 103.089844 L 91.148438 107.085938 L 91.132812 107.183594 L 91.097656 107.289062 L 91.035156 107.375 L 90.945312 107.433594 L 90.839844 107.480469 L 90.738281 107.492188 Z M 90.390625 107.492188 "/>
<path fill-rule="nonzero" fill="rgb(31.053162%, 35.05249%, 19.322205%)" fill-opacity="1" d="M 122.261719 107.492188 L 121.921875 107.492188 L 121.816406 107.480469 L 121.714844 107.433594 L 121.625 107.375 L 121.558594 107.289062 L 121.527344 107.183594 L 121.507812 107.085938 L 121.496094 103.089844 L 120.667969 103.085938 L 120.15625 103.035156 L 119.335938 102.976562 L 118.507812 102.894531 L 117.683594 102.78125 L 116.863281 102.640625 L 116.046875 102.484375 L 115.234375 102.296875 L 114.433594 102.089844 L 113.636719 101.855469 L 112.84375 101.59375 L 112.425781 101.4375 L 111.660156 101.128906 L 109.929688 104.347656 L 109.871094 104.433594 L 109.78125 104.5 L 109.6875 104.546875 L 109.578125 104.5625 L 109.472656 104.558594 L 109.375 104.511719 L 108.78125 104.28125 L 108.703125 104.214844 L 108.636719 104.125 L 108.589844 104.03125 L 108.574219 103.925781 L 108.578125 103.816406 L 108.621094 103.71875 L 108.617188 103.714844 L 110.292969 100.570312 L 109.398438 100.136719 L 108.523438 99.679688 L 108.4375 99.609375 L 108.371094 99.523438 L 108.324219 99.429688 L 108.308594 99.320312 L 108.316406 99.214844 L 108.355469 99.109375 L 108.417969 99.023438 L 109.429688 97.601562 L 109.527344 97.527344 L 109.621094 97.480469 L 109.742188 97.457031 L 109.847656 97.472656 L 109.957031 97.515625 L 110.453125 97.804688 L 111.148438 98.167969 L 111.851562 98.503906 L 112.570312 98.816406 L 113.289062 99.109375 L 114.023438 99.371094 L 114.761719 99.621094 L 115.507812 99.847656 L 116.273438 100.039062 L 117.027344 100.207031 L 117.800781 100.359375 L 118.570312 100.484375 L 119.339844 100.578125 L 120.117188 100.652344 L 120.898438 100.699219 L 121.675781 100.722656 L 122.855469 100.722656 L 123.632812 100.699219 L 124.414062 100.652344 L 125.191406 100.578125 L 125.960938 100.484375 L 126.730469 100.359375 L 127.5 100.207031 L 128.257812 100.039062 L 129.019531 99.847656 L 129.769531 99.621094 L 130.507812 99.371094 L 131.242188 99.109375 L 131.960938 98.816406 L 132.679688 98.503906 L 133.386719 98.167969 L 134.074219 97.804688 L 134.574219 97.515625 L 134.683594 97.472656 L 134.789062 97.457031 L 134.910156 97.480469 L 135.003906 97.527344 L 135.101562 97.601562 L 136.113281 99.023438 L 136.175781 99.109375 L 136.214844 99.214844 L 136.222656 99.320312 L 136.207031 99.429688 L 136.160156 99.523438 L 136.09375 99.609375 L 136.007812 99.679688 L 135.132812 100.136719 L 134.238281 100.570312 L 135.917969 103.714844 L 135.90625 103.71875 L 135.949219 103.816406 L 135.953125 103.925781 L 135.941406 104.03125 L 135.894531 104.125 L 135.828125 104.214844 L 135.75 104.28125 L 135.15625 104.511719 L 135.058594 104.558594 L 134.953125 104.5625 L 134.839844 104.546875 L 134.746094 104.5 L 134.660156 104.433594 L 134.597656 104.347656 L 132.871094 101.128906 L 132.101562 101.4375 L 131.683594 101.59375 L 130.890625 101.855469 L 130.09375 102.089844 L 129.296875 102.296875 L 128.480469 102.484375 L 127.664062 102.640625 L 126.847656 102.78125 L 126.023438 102.894531 L 125.195312 102.976562 L 124.375 103.035156 L 123.859375 103.085938 L 123.03125 103.089844 L 123.019531 107.085938 L 123.007812 107.183594 L 122.972656 107.289062 L 122.90625 107.375 L 122.816406 107.433594 L 122.710938 107.480469 L 122.609375 107.492188 Z M 122.261719 107.492188 "/>
<path fill-rule="nonzero" fill="rgb(31.053162%, 35.05249%, 19.322205%)" fill-opacity="1" d="M 29.835938 19.757812 C 28.71875 16.851562 25.457031 15.390625 22.550781 16.507812 C 19.644531 17.625 18.195312 20.894531 19.316406 23.800781 C 20.4375 26.714844 23.699219 28.164062 26.605469 27.050781 C 29.507812 25.9375 30.957031 22.667969 29.835938 19.757812 "/>
<path fill-rule="nonzero" fill="rgb(13.729858%, 12.159729%, 12.548828%)" fill-opacity="1" d="M 149.078125 118.785156 C 149.070312 120.511719 150.480469 121.933594 152.21875 121.949219 C 153.941406 121.964844 155.375 120.546875 155.386719 118.8125 C 155.402344 117.082031 153.976562 115.644531 152.242188 115.640625 C 150.511719 115.636719 149.085938 117.050781 149.078125 118.785156 M 148.523438 118.796875 C 148.539062 116.746094 150.160156 115.089844 152.234375 115.089844 C 154.273438 115.085938 155.929688 116.707031 155.9375 118.785156 C 155.949219 120.804688 154.339844 122.492188 152.242188 122.5 C 150.207031 122.507812 148.546875 120.886719 148.523438 118.796875 "/>
<path fill-rule="nonzero" fill="rgb(13.729858%, 12.159729%, 12.548828%)" fill-opacity="1" d="M 151.316406 118.578125 C 151.335938 118.589844 151.34375 118.59375 151.355469 118.59375 C 151.613281 118.597656 151.875 118.605469 152.132812 118.597656 C 152.34375 118.589844 152.558594 118.570312 152.765625 118.539062 C 152.910156 118.515625 153.023438 118.429688 153.097656 118.292969 C 153.300781 117.917969 153.101562 117.5 152.671875 117.464844 C 152.230469 117.429688 151.785156 117.445312 151.339844 117.4375 C 151.335938 117.4375 151.328125 117.449219 151.316406 117.460938 Z M 152.757812 118.960938 C 152.921875 119.136719 153.109375 119.304688 153.253906 119.503906 C 153.5 119.84375 153.714844 120.203125 153.964844 120.582031 C 153.753906 120.582031 153.578125 120.589844 153.402344 120.578125 C 153.367188 120.574219 153.324219 120.515625 153.296875 120.476562 C 153.066406 120.128906 152.835938 119.773438 152.601562 119.425781 C 152.425781 119.15625 152.195312 118.988281 151.847656 119.015625 C 151.675781 119.027344 151.503906 119.015625 151.3125 119.015625 L 151.3125 120.578125 L 150.847656 120.578125 L 150.847656 117.035156 C 150.886719 117.035156 150.917969 117.035156 150.949219 117.035156 C 151.554688 117.042969 152.160156 117.046875 152.765625 117.0625 C 153.242188 117.074219 153.589844 117.382812 153.652344 117.824219 C 153.722656 118.332031 153.496094 118.722656 153.027344 118.882812 C 152.925781 118.917969 152.820312 118.941406 152.757812 118.960938 "/>
</svg>
